<svg xmlns="http://www.w3.org/2000/svg" viewBox="0 0 99.781 99.781"><defs><style>.a{fill:#ebebeb;}.b{fill:#01263f;}.b,.c{fill-rule:evenodd;}.c{fill:#fff;fill-opacity:0.44;}</style></defs><circle class="a" cx="49.891" cy="49.891" r="49.891"/><path class="b" d="M85.165,14.613A49.888,49.888,0,0,0,0,49.889C0,77.423,22.355,100,49.889,99.778c12.66-.1,17.363-3.046,21.926-4.869L58.3,80.486A31.731,31.731,0,1,1,72.326,27.452Z"/><path class="c" d="M49.619,33.642A15.884,15.884,0,0,1,65.5,49.519c0,.429,15.764-.556,15.794,0,.264,4.823-1.943,14.113-7.013,20.08-6.268,7.379-15.695,11.032-15.695,11.032S40.31,63.158,37.4,59.648A15.874,15.874,0,0,1,49.619,33.642Z"/><circle class="a" cx="50.195" cy="8.946" r="3.649"/><circle class="a" cx="20.266" cy="20.734" r="3.649"/><circle class="a" cx="20.266" cy="78.777" r="3.649"/><circle class="a" cx="49.468" cy="90.567" r="3.649"/><circle class="a" cx="78.49" cy="78.777" r="3.649"/><circle class="a" cx="8.659" cy="49.756" r="3.649"/><path class="b" d="M95.2,50.031a4.548,4.548,0,0,0-4.545-4.545H49.683a4.545,4.545,0,1,0,0,9.09h40.97A4.547,4.547,0,0,0,95.2,50.031Z"/></svg>