<svg xmlns="http://www.w3.org/2000/svg" viewBox="0 0 100.496 86.14"><defs><style>.a{fill:#01263f;}</style></defs><path class="a" d="M7.178,52.043a3.379,3.379,0,0,0-3.589,3.589V78.961a3.38,3.38,0,0,0,3.589,3.59h86.14a3.38,3.38,0,0,0,3.589-3.59V55.632a3.379,3.379,0,0,0-3.589-3.589Zm86.14,34.1H7.178A6.977,6.977,0,0,1,0,78.961V55.632a6.978,6.978,0,0,1,7.178-7.179h86.14a6.978,6.978,0,0,1,7.178,7.179V78.961a6.977,6.977,0,0,1-7.178,7.179"/><path class="a" d="M64.605,32.3H35.892V16.151c0-6.927,6.442-12.562,14.356-12.562S64.605,9.224,64.605,16.151Zm8.972,0H68.194V16.151C68.194,7.25,60.136,0,50.248,0S32.3,7.25,32.3,16.151V32.3H26.919a5.4,5.4,0,0,0-5.384,5.384v8.973H43.07c0-2.98,3.212-5.384,7.178-5.384s7.179,2.4,7.179,5.384H78.961V37.686A5.4,5.4,0,0,0,73.577,32.3"/><path class="a" d="M24.762,69.913,20.77,67.3l3.992-2.617a1.794,1.794,0,1,0-1.968-3l-3.5,2.3V60.118a1.795,1.795,0,0,0-3.589,0v3.857l-3.5-2.3a1.794,1.794,0,1,0-1.968,3L14.224,67.3l-3.992,2.616a1.794,1.794,0,1,0,1.968,3l3.5-2.3v3.857a1.795,1.795,0,0,0,3.589,0V70.618l3.5,2.3a1.794,1.794,0,1,0,1.968-3"/><path class="a" d="M47.194,69.913,43.2,67.3l3.992-2.617a1.794,1.794,0,1,0-1.968-3l-3.5,2.3V60.118a1.795,1.795,0,0,0-3.589,0v3.857l-3.5-2.3a1.794,1.794,0,1,0-1.968,3L36.657,67.3l-3.993,2.616a1.794,1.794,0,1,0,1.968,3l3.5-2.3v3.857a1.795,1.795,0,0,0,3.589,0V70.618l3.5,2.3a1.794,1.794,0,1,0,1.968-3"/><path class="a" d="M68.729,69.913,64.737,67.3l3.992-2.617a1.794,1.794,0,1,0-1.967-3l-3.5,2.3V60.118a1.8,1.8,0,0,0-3.59,0v3.857l-3.5-2.3a1.794,1.794,0,1,0-1.967,3L58.191,67.3,54.2,69.913a1.794,1.794,0,1,0,1.967,3l3.5-2.3v3.857a1.8,1.8,0,0,0,3.59,0V70.618l3.5,2.3a1.775,1.775,0,0,0,.981.3,1.795,1.795,0,0,0,.986-3.3"/><path class="a" d="M90.264,69.913,86.272,67.3l3.992-2.617a1.794,1.794,0,1,0-1.968-3l-3.5,2.3V60.118a1.795,1.795,0,0,0-3.589,0v3.857l-3.5-2.3a1.794,1.794,0,1,0-1.968,3L79.726,67.3l-3.992,2.616a1.794,1.794,0,1,0,1.968,3l3.5-2.3v3.857a1.795,1.795,0,0,0,3.589,0V70.618l3.5,2.3a1.794,1.794,0,1,0,1.968-3"/></svg>