<?xml version="1.0" encoding="UTF-8" standalone="no"?>
<!DOCTYPE svg PUBLIC "-//W3C//DTD SVG 1.1//EN" "http://www.w3.org/Graphics/SVG/1.1/DTD/svg11.dtd">
<svg width="100%" height="100%" viewBox="0 0 19 18" version="1.1" xmlns="http://www.w3.org/2000/svg" xmlns:xlink="http://www.w3.org/1999/xlink" xml:space="preserve" xmlns:serif="http://www.serif.com/" style="fill-rule:evenodd;clip-rule:evenodd;stroke-linejoin:round;stroke-miterlimit:2;">
    <g transform="matrix(1,0,0,1,-571.346,-414.151)">
        <g transform="matrix(0,-18,-18,0,580.347,432.151)">
            <path d="M1,-0.25C1,-0.233 0.986,-0.219 0.969,-0.219L0.75,-0.219C0.733,-0.219 0.719,-0.233 0.719,-0.25L0.719,-0.469C0.719,-0.486 0.733,-0.5 0.75,-0.5L0.969,-0.5C0.986,-0.5 1,-0.486 1,-0.469L1,-0.25ZM1,0.109C1,0.127 0.986,0.141 0.969,0.141L0.75,0.141C0.733,0.141 0.719,0.127 0.719,0.109L0.719,-0.109C0.719,-0.127 0.733,-0.141 0.75,-0.141L0.969,-0.141C0.986,-0.141 1,-0.127 1,-0.109L1,0.109ZM1,0.469C1,0.486 0.986,0.5 0.969,0.5L0.75,0.5C0.733,0.5 0.719,0.486 0.719,0.469L0.719,0.25C0.719,0.233 0.733,0.219 0.75,0.219L0.969,0.219C0.986,0.219 1,0.233 1,0.25L1,0.469ZM0.641,-0.25C0.641,-0.233 0.626,-0.219 0.609,-0.219L0.391,-0.219C0.373,-0.219 0.359,-0.233 0.359,-0.25L0.359,-0.469C0.359,-0.486 0.373,-0.5 0.391,-0.5L0.609,-0.5C0.626,-0.5 0.641,-0.486 0.641,-0.469L0.641,-0.25ZM0.641,0.109C0.641,0.127 0.626,0.141 0.609,0.141L0.391,0.141C0.373,0.141 0.359,0.127 0.359,0.109L0.359,-0.109C0.359,-0.127 0.373,-0.141 0.391,-0.141L0.609,-0.141C0.626,-0.141 0.641,-0.127 0.641,-0.109L0.641,0.109ZM0.641,0.469C0.641,0.486 0.626,0.5 0.609,0.5L0.391,0.5C0.373,0.5 0.359,0.486 0.359,0.469L0.359,0.25C0.359,0.233 0.373,0.219 0.391,0.219L0.609,0.219C0.626,0.219 0.641,0.233 0.641,0.25L0.641,0.469ZM0.281,-0.25C0.281,-0.233 0.267,-0.219 0.25,-0.219L0.031,-0.219C0.014,-0.219 0,-0.233 0,-0.25L0,-0.469C0,-0.486 0.014,-0.5 0.031,-0.5L0.25,-0.5C0.267,-0.5 0.281,-0.486 0.281,-0.469L0.281,-0.25ZM0.281,0.109C0.281,0.127 0.267,0.141 0.25,0.141L0.031,0.141C0.014,0.141 0,0.127 0,0.109L0,-0.109C0,-0.127 0.014,-0.141 0.031,-0.141L0.25,-0.141C0.267,-0.141 0.281,-0.127 0.281,-0.109L0.281,0.109ZM0.281,0.469C0.281,0.486 0.267,0.5 0.25,0.5L0.031,0.5C0.014,0.5 0,0.486 0,0.469L0,0.25C0,0.233 0.014,0.219 0.031,0.219L0.25,0.219C0.267,0.219 0.281,0.233 0.281,0.25L0.281,0.469Z" style="fill:rgb(1,38,63);fill-rule:nonzero;"/>
        </g>
    </g>
</svg>
