<svg width="100%" height="100%" xmlns="http://www.w3.org/2000/svg" viewBox="0 0 113.023 82.597"><defs><style>.a{fill:#fff;}.a,.b{fill-rule:evenodd;}.b{fill:#03A300;}</style></defs><path class="a" d="M47.809,82.6A7.821,7.821,0,0,1,43.3,81.173c-.069-.048-.136-.1-.2-.15C35.945,75.451,5.514,48.51,3.561,46.779a10.05,10.05,0,0,1-1.4-13.9A10.029,10.029,0,0,1,16.023,30.67c.113.081.223.166.33.256L47.528,57.212,96.418,3a8.667,8.667,0,0,1,6.627-3,10.411,10.411,0,0,1,6.833,2.674c3.918,3.436,4.2,8.689.695,12.771-1.927,2.212-46.744,53.644-56.891,64.517A7.854,7.854,0,0,1,47.809,82.6Z"/><path class="b" d="M13.13,34.748a5.03,5.03,0,0,0-7,1.175,5.03,5.03,0,0,0,.692,7.065S38.978,71.477,46.17,77.079a2.858,2.858,0,0,0,3.806-.474c10.1-10.813,56.806-64.42,56.806-64.42,1.668-1.94,1.652-4.126-.2-5.754-1.935-1.7-4.747-2.06-6.415-.121L48,64.152Z"/></svg>
