<?xml version="1.0" encoding="UTF-8" standalone="no"?>
<!DOCTYPE svg PUBLIC "-//W3C//DTD SVG 1.1//EN" "http://www.w3.org/Graphics/SVG/1.1/DTD/svg11.dtd">
<svg width="100%" height="100%" viewBox="0 0 22 30" version="1.1" xmlns="http://www.w3.org/2000/svg" xmlns:xlink="http://www.w3.org/1999/xlink" xml:space="preserve" xmlns:serif="http://www.serif.com/" style="fill-rule:evenodd;clip-rule:evenodd;stroke-linejoin:round;stroke-miterlimit:2;">
    <g transform="matrix(1,0,0,1,-1295.24,-343.49)">
        <g transform="matrix(0.429063,0,0,0.429063,1295.24,328.49)">
            <g transform="matrix(1,0,0,1,0,34.9599)">
                <path d="M37.098,32.5L13,32.5L13,13L37.098,13L37.098,32.5ZM39.598,8L10.5,8C9.119,8 8,9.119 8,10.5L8,35C8,36.381 9.119,37.5 10.5,37.5L39.598,37.5C40.979,37.5 42.098,36.381 42.098,35L42.098,10.5C42.098,9.119 40.979,8 39.598,8M45.098,61.5C45.098,62.878 43.977,64 42.598,64L7.5,64C6.121,64 5,62.878 5,61.5L5,7.5C5,6.121 6.121,5 7.5,5L42.598,5C43.977,5 45.098,6.121 45.098,7.5L45.098,61.5ZM42.598,0L7.5,0C3.365,0 0,3.364 0,7.5L0,61.5C0,65.636 3.365,69 7.5,69L42.598,69C46.734,69 50.098,65.636 50.098,61.5L50.098,7.5C50.098,3.364 46.734,0 42.598,0M25.049,55.892C22.293,55.892 20.049,53.648 20.049,50.892C20.049,48.135 22.293,45.892 25.049,45.892C27.807,45.892 30.049,48.135 30.049,50.892C30.049,53.648 27.807,55.892 25.049,55.892M25.049,40.892C19.535,40.892 15.049,45.378 15.049,50.892C15.049,56.406 19.535,60.892 25.049,60.892C30.562,60.892 35.049,56.406 35.049,50.892C35.049,45.378 30.562,40.892 25.049,40.892M25.049,47.892C23.393,47.892 22.049,49.235 22.049,50.892C22.049,52.549 23.393,53.892 25.049,53.892C26.705,53.892 28.049,52.549 28.049,50.892C28.049,49.235 26.705,47.892 25.049,47.892" style="fill:#BBBBBB;fill-rule:nonzero;"/>
            </g>
        </g>
    </g>
</svg>
