<?xml version="1.0" encoding="UTF-8" standalone="no"?>
<!DOCTYPE svg PUBLIC "-//W3C//DTD SVG 1.1//EN" "http://www.w3.org/Graphics/SVG/1.1/DTD/svg11.dtd">
<svg width="100%" height="100%" viewBox="0 0 23 29" version="1.1" xmlns="http://www.w3.org/2000/svg" xmlns:xlink="http://www.w3.org/1999/xlink" xml:space="preserve" xmlns:serif="http://www.serif.com/" style="fill-rule:evenodd;clip-rule:evenodd;stroke-linejoin:round;stroke-miterlimit:2;">
    <g transform="matrix(1,0,0,1,-1131,-188)">
        <g transform="matrix(1.07875,0,0,1.07875,198.598,-13.3164)">
            <g>
                <g>
                    <g transform="matrix(0.818804,0,0,0.836735,164.223,32.0842)">
                        <path d="M868.162,185.267C861.14,185.267 855.414,190.945 855.414,197.967C855.414,204.988 861.14,210.666 868.162,210.666C875.183,210.666 880.909,204.988 880.909,197.967C880.909,190.945 875.183,185.267 868.162,185.267ZM868.162,187.483C873.947,187.483 878.645,192.181 878.645,197.967C878.645,203.752 873.947,208.45 868.162,208.45C862.376,208.45 857.678,203.752 857.678,197.967C857.678,192.181 862.376,187.483 868.162,187.483Z" style="fill:rgb(1,38,63);"/>
                    </g>
                    <g transform="matrix(1.0486,0,0,0.890385,-36.2886,23.4369)">
                        <path d="M869.16,199.548C871.346,199.548 874.55,200.022 874.538,200.791C874.526,201.561 872.229,204.233 869.088,204.165C866.032,204.099 863.732,201.612 863.744,200.842C863.756,200.073 867.086,199.548 869.16,199.548Z" style="fill:rgb(1,38,63);"/>
                    </g>
                    <g transform="matrix(1.00773,0,0,0.932356,-3.8961,16.9475)">
                        <ellipse cx="872.293" cy="191.675" rx="4.085" ry="4.529" style="fill:rgb(1,38,63);"/>
                    </g>
                    <g transform="matrix(0.760026,-0.443151,0.364281,0.62476,155.453,453.717)">
                        <path d="M853.881,209.358C853.828,209.039 853.622,208.78 853.303,208.78L852.148,208.78C851.829,208.78 851.624,209.033 851.57,209.358C851.57,209.358 850.474,215.966 850.57,217.603C850.614,218.345 851.3,219.181 851.944,219.181C852.33,219.181 852.991,219.181 853.376,219.181C854.245,219.181 854.837,218.345 854.881,217.603C854.977,215.966 853.881,209.358 853.881,209.358Z" style="fill:rgb(1,38,63);"/>
                    </g>
                </g>
            </g>
        </g>
    </g>
</svg>
