<?xml version="1.0" encoding="UTF-8" standalone="no"?>
<!DOCTYPE svg PUBLIC "-//W3C//DTD SVG 1.1//EN" "http://www.w3.org/Graphics/SVG/1.1/DTD/svg11.dtd">
<svg width="100%" height="100%" viewBox="0 0 27 27" version="1.1" xmlns="http://www.w3.org/2000/svg" xmlns:xlink="http://www.w3.org/1999/xlink" xml:space="preserve" xmlns:serif="http://www.serif.com/" style="fill-rule:evenodd;clip-rule:evenodd;stroke-linejoin:round;stroke-miterlimit:2;">
    <g transform="matrix(1,0,0,1,-711.627,-257.721)">
        <g transform="matrix(1.16754,0,0,1.16754,-17.5887,64.5025)">
            <circle cx="635.828" cy="176.746" r="11.254" style="fill:rgb(136,136,136);"/>
        </g>
        <g transform="matrix(0,-10.7485,-10.7485,0,724.775,276.329)">
            <path d="M1,-0.333L1,-0.042C1,-0.014 0.986,0.013 0.961,0.029L0.833,0.109L0.833,0.292L0.875,0.292C0.898,0.292 0.917,0.31 0.917,0.333L0.917,0.458C0.917,0.481 0.898,0.5 0.875,0.5L0.833,0.5L0.833,0.583C0.833,0.629 0.796,0.667 0.75,0.667L0.083,0.667C0.037,0.667 0,0.629 0,0.583L0,-0.583C0,-0.629 0.037,-0.667 0.083,-0.667L0.75,-0.667C0.796,-0.667 0.833,-0.629 0.833,-0.583L0.833,-0.484L0.957,-0.407C0.982,-0.392 1,-0.365 1,-0.333ZM0.437,0.125C0.61,0.125 0.75,-0.015 0.75,-0.187C0.75,-0.36 0.61,-0.5 0.437,-0.5C0.265,-0.5 0.125,-0.36 0.125,-0.187C0.125,-0.015 0.265,0.125 0.437,0.125ZM0.667,0.542C0.69,0.542 0.708,0.523 0.708,0.5L0.708,0.292C0.708,0.269 0.69,0.25 0.667,0.25C0.644,0.25 0.625,0.269 0.625,0.292L0.625,0.5C0.625,0.523 0.644,0.542 0.667,0.542ZM0.437,0C0.334,0 0.25,-0.084 0.25,-0.187C0.25,-0.291 0.334,-0.375 0.437,-0.375C0.541,-0.375 0.625,-0.291 0.625,-0.187C0.625,-0.084 0.541,0 0.437,0Z" style="fill:white;fill-rule:nonzero;"/>
        </g>
    </g>
</svg>
