<svg xmlns="http://www.w3.org/2000/svg" viewBox="0 0 73.182 97.576"><defs><style>.a{fill:#01263f;}</style></defs><path class="a" d="M36.591,0A27.318,27.318,0,0,0,9.172,27.419v12.2A9.161,9.161,0,0,0,0,48.788V88.4a9.161,9.161,0,0,0,9.172,9.172H64.01A9.161,9.161,0,0,0,73.182,88.4V48.788a9.161,9.161,0,0,0-9.172-9.172v-12.2A27.319,27.319,0,0,0,36.591,0ZM18.247,27.419a18.058,18.058,0,0,1,5.366-12.88,18.248,18.248,0,0,1,31.225,12.88v12.2H18.247ZM33.566,77.768V72.6a7.726,7.726,0,0,1-4.586-7.025,7.611,7.611,0,0,1,15.222,0A7.726,7.726,0,0,1,39.616,72.6v5.172a3.025,3.025,0,1,1-6.05,0Z"/></svg>