<?xml version="1.0" encoding="UTF-8" standalone="no"?>
<!DOCTYPE svg PUBLIC "-//W3C//DTD SVG 1.1//EN" "http://www.w3.org/Graphics/SVG/1.1/DTD/svg11.dtd">
<svg width="100%" height="100%" viewBox="0 0 86 86" version="1.1" xmlns="http://www.w3.org/2000/svg" xmlns:xlink="http://www.w3.org/1999/xlink" xml:space="preserve" xmlns:serif="http://www.serif.com/" style="fill-rule:evenodd;clip-rule:evenodd;stroke-linejoin:round;stroke-miterlimit:2;">
    <g transform="matrix(1,0,0,1,-1525.69,-226.906)">
        <g transform="matrix(1,0,0,1,500,0)">
            <g transform="matrix(1.03847,0,0,1.03847,-558.828,-8.8671)">
                <path d="M1566.85,228.585C1545.06,228.585 1527.37,246.276 1527.37,268.067C1527.37,289.857 1545.06,307.548 1566.85,307.548C1588.64,307.548 1606.33,289.857 1606.33,268.067C1606.33,246.276 1588.64,228.585 1566.85,228.585ZM1566.85,230.511C1587.58,230.511 1604.41,247.339 1604.41,268.067C1604.41,288.794 1587.58,305.622 1566.85,305.622C1546.12,305.622 1529.3,288.794 1529.3,268.067C1529.3,247.339 1546.12,230.511 1566.85,230.511Z" style="fill:231F20;"/>
            </g>
        </g>
    </g>
</svg>
