<svg xmlns="http://www.w3.org/2000/svg" viewBox="0 0 90.101 99.449"><defs><style>.a{fill:#01263f;}</style></defs><path class="a" d="M45.05,0a6.218,6.218,0,0,0-6.165,6.265V49.724A6.283,6.283,0,0,0,45.05,55.99a6.369,6.369,0,0,0,6.266-6.266V6.265A6.3,6.3,0,0,0,45.05,0ZM59.272,17.7a6.15,6.15,0,0,0,2.187,8.453A32.961,32.961,0,0,1,73.393,38.188a32.619,32.619,0,1,1-56.686,0A32.976,32.976,0,0,1,28.641,26.155a6.174,6.174,0,1,0-6.265-10.641,45.066,45.066,0,1,0,45.349,0,5.828,5.828,0,0,0-3.083-.895A6.057,6.057,0,0,0,59.272,17.7Z"/></svg>