<svg xmlns="http://www.w3.org/2000/svg" viewBox="0 0 87.114 99.445"><defs><style>.a{fill:#01263f;}</style></defs><path class="a" d="M43.557,0a11.993,11.993,0,0,0-8.751,3.679,11.994,11.994,0,0,0-3.68,8.752A12.644,12.644,0,0,0,32.419,17.9a25.992,25.992,0,0,0-8.552,5.768,27.576,27.576,0,0,0-8.254,19.889c0,6.762-.995,15.513-3.978,21.48C9.746,68.816,6.961,71.5,3.182,71.5A3.185,3.185,0,0,0,0,74.584v3.082a3.185,3.185,0,0,0,3.182,3.083H83.931a3.121,3.121,0,0,0,3.183-3.083V74.584A3.121,3.121,0,0,0,83.931,71.5c-3.878,0-6.563-2.685-8.452-6.464C72.5,59.07,71.5,50.319,71.5,43.557a27.576,27.576,0,0,0-8.254-19.889A25.992,25.992,0,0,0,54.7,17.9a12.657,12.657,0,0,0,1.292-5.469,12,12,0,0,0-3.679-8.752A12,12,0,0,0,43.557,0ZM41.369,14.618a2.92,2.92,0,0,1-.9-2.187,3.083,3.083,0,1,1,6.166,0,3.094,3.094,0,0,1-5.271,2.187Zm-13.027,72.4a15.527,15.527,0,0,0,30.43,0Z"/></svg>