<svg xmlns="http://www.w3.org/2000/svg" viewBox="0 0 99.445 99.445"><defs><style>.a{fill:#01263f;}</style></defs><path class="a" d="M43.458,0a3.117,3.117,0,0,0-3.083,2.784l-1.392,8.851a38.424,38.424,0,0,0-8.652,3.481l-7.26-5.171a3.049,3.049,0,0,0-4.077.2l-4.475,4.376-4.376,4.475a3.174,3.174,0,0,0-.2,4.177l5.171,7.16a38.424,38.424,0,0,0-3.481,8.652L2.784,40.375A3.143,3.143,0,0,0,0,43.557V55.988a3.117,3.117,0,0,0,2.784,3.083l8.851,1.392a35.906,35.906,0,0,0,3.481,8.552l-5.171,7.26a3.173,3.173,0,0,0,.2,4.176l4.376,4.475L18.994,89.3a3.049,3.049,0,0,0,4.077.2l7.26-5.171a36.645,36.645,0,0,0,8.652,3.48l1.392,8.851a3.117,3.117,0,0,0,3.083,2.784h12.53a3.117,3.117,0,0,0,3.083-2.784l1.392-8.851a34.285,34.285,0,0,0,8.552-3.48L76.374,89.5a3.049,3.049,0,0,0,4.077-.2l4.475-4.376L89.3,80.451a3.173,3.173,0,0,0,.2-4.176l-5.171-7.16a36.645,36.645,0,0,0,3.48-8.652l8.851-1.392a3.117,3.117,0,0,0,2.784-3.083V43.557a3.143,3.143,0,0,0-2.784-3.182L87.81,38.983a35.911,35.911,0,0,0-3.48-8.553L89.5,23.171a3.174,3.174,0,0,0-.2-4.177l-4.376-4.475-4.475-4.376a3.049,3.049,0,0,0-4.077-.2l-7.259,5.171a36.648,36.648,0,0,0-8.652-3.481L59.071,2.784A3.117,3.117,0,0,0,55.988,0ZM31.126,49.723a18.6,18.6,0,1,1,18.6,18.6A18.569,18.569,0,0,1,31.126,49.723Z"/></svg>